HIERARCHY
ROOT Hips
{
	OFFSET	0.00	0.00	0.00
	CHANNELS 6 Xposition Yposition Zposition Zrotation Xrotation Yrotation
	JOINT LeftUpLeg
	{
		OFFSET	 0.126116	-0.014019	-0.065224
		CHANNELS 3 Zrotation Xrotation Yrotation
		JOINT LeftLeg
		{
			OFFSET	 0.000000	 0.000000	 0.569914
			CHANNELS 3 Zrotation Xrotation Yrotation
			JOINT LeftFoot
			{
				OFFSET	 0.000000	 0.000000	 0.544423
				CHANNELS 3 Zrotation Xrotation Yrotation
				JOINT LeftToeBase
				{
					OFFSET	 0.000000	 0.000000	 0.207117
					CHANNELS 3 Zrotation Xrotation Yrotation
					End Site
					{
						OFFSET	 0.000000	 0.000000	 0.207117
					}
				}
			}
		}
	}
	JOINT RightUpLeg
	{
		OFFSET	-0.124023	-0.008373	-0.065224
		CHANNELS 3 Zrotation Xrotation Yrotation
		JOINT RightLeg
		{
			OFFSET	 0.000000	 0.000000	 0.570047
			CHANNELS 3 Zrotation Xrotation Yrotation
			JOINT RightFoot
			{
				OFFSET	 0.000000	 0.000000	 0.544354
				CHANNELS 3 Zrotation Xrotation Yrotation
				JOINT RightToeBase
				{
					OFFSET	 0.000000	 0.000000	 0.207540
					CHANNELS 3 Zrotation Xrotation Yrotation
					End Site
					{
						OFFSET	 0.000000	 0.000000	 0.207540
					}
				}
			}
		}
	}
	JOINT Spine
	{
		OFFSET	 0.000184	-0.007763	 0.117403
		CHANNELS 3 Zrotation Xrotation Yrotation
		JOINT Spine1
		{
			OFFSET	 0.000000	 0.000000	 0.137269
			CHANNELS 3 Zrotation Xrotation Yrotation
			JOINT Spine2
			{
				OFFSET	 0.000000	 0.000000	 0.156879
				CHANNELS 3 Zrotation Xrotation Yrotation
				JOINT LeftShoulder
				{
					OFFSET	 0.080501	-0.002496	 0.160144
					CHANNELS 3 Zrotation Xrotation Yrotation
					JOINT LeftArm
					{
						OFFSET	 0.000000	 0.000000	 0.164363
						CHANNELS 3 Zrotation Xrotation Yrotation
						JOINT LeftForeArm
						{
							OFFSET	 0.000000	 0.000000	 0.364576
							CHANNELS 3 Zrotation Xrotation Yrotation
							JOINT LeftHand
							{
								OFFSET	 0.000000	 0.000000	 0.360812
								CHANNELS 3 Zrotation Xrotation Yrotation
								JOINT LeftHandIndex1
								{
									OFFSET	 0.000000	 0.000000	 0.086006
									CHANNELS 3 Zrotation Xrotation Yrotation
									JOINT LeftHandIndex2
									{
										OFFSET	 0.000000	 0.000000	 0.047236
										CHANNELS 3 Zrotation Xrotation Yrotation
										JOINT LeftHandIndex3
										{
											OFFSET	-0.004284	-0.000551	 0.038166
											CHANNELS 3 Zrotation Xrotation Yrotation
											End Site
											{
												OFFSET	-0.004284	-0.000551	 0.038166
											}
										}
									}
								}
							}
						}
					}
				}
				JOINT Neck
				{
					OFFSET	 0.000000	 0.000000	 0.176489
					CHANNELS 3 Zrotation Xrotation Yrotation
					JOINT Head
					{
						OFFSET	 0.000000	-0.001747	 0.077940
						CHANNELS 3 Zrotation Xrotation Yrotation
						End Site
						{
							OFFSET	 0.000000	-0.001747	 0.077940
						}
					}
				}
				JOINT RightShoulder
				{
					OFFSET	-0.080363	 0.000306	 0.159706
					CHANNELS 3 Zrotation Xrotation Yrotation
					JOINT RightArm
					{
						OFFSET	 0.000000	 0.000000	 0.164196
						CHANNELS 3 Zrotation Xrotation Yrotation
						JOINT RightForeArm
						{
							OFFSET	 0.000000	 0.000000	 0.365611
							CHANNELS 3 Zrotation Xrotation Yrotation
							JOINT RightHand
							{
								OFFSET	 0.000000	 0.000000	 0.360648
								CHANNELS 3 Zrotation Xrotation Yrotation
								JOINT RightHandIndex1
								{
									OFFSET	 0.000000	 0.000000	 0.069977
									CHANNELS 3 Zrotation Xrotation Yrotation
									JOINT RightHandIndex2
									{
										OFFSET	 0.000000	 0.000000	 0.052305
										CHANNELS 3 Zrotation Xrotation Yrotation
										JOINT RightHandIndex3
										{
											OFFSET	 0.009002	-0.000782	 0.042196
											CHANNELS 3 Zrotation Xrotation Yrotation
											End Site
											{
												OFFSET	 0.009002	-0.000782	 0.042196
											}
										}
									}
								}
							}
						}
					}
				}
			}
		}
	}
}
MOTION
Frames:    9
Frame Time: 0.03333334
 0.696926	-0.547999	-0.727794	 104.289400	 0.632128	 3.620008	 5.054437	-3.853691	 176.454300	-11.488430	-34.934190	-5.502099	 171.958400	 86.743760	 179.303300	-2.378043	 30.071790	-0.035393	 1.825666	-12.600090	 178.813900	 3.948582	-49.658580	 6.201533	-175.045100	 82.255520	-179.003000	 2.403664	 22.148300	-0.130115	-0.858753	 0.406293	-1.764807	-0.384797	-2.416950	-0.199877	-0.001671	-4.624569	-0.000177	-91.809220	 77.654930	 179.104500	 44.397110	 73.331290	-47.174570	-9.610530	-4.135674	-20.677920	 4.484457	-17.420590	-5.585764	-3.812334	 37.924440	-2.927599	-2.450526	 36.184240	 0.754587	-1.378229	 35.397820	-2.634230	 0.600661	 6.651647	-3.285197	 0.364178	-14.318330	-1.484824	 89.766850	 79.220760	-179.663100	-43.886500	 73.763330	 46.012730	 4.523150	-9.188918	 32.653850	-10.360460	-18.237420	 10.094470	 6.437017	 35.671460	-0.771858	 2.830251	 35.756010	-7.813440	-2.350882	 35.473990	 5.254307
 0.707608	-0.544031	-0.731707	 99.789840	 0.647142	 3.693948	 5.058257	-3.945025	 176.471000	-11.276780	-33.699600	-5.166387	 171.920000	 86.634190	 179.400300	-2.377666	 30.143230	-0.036974	 1.778143	-12.645250	 178.915000	 3.652147	-47.599980	 5.716857	-175.264700	 82.169230	-178.788200	 2.403698	 22.125710	-0.130570	-0.852473	 0.476959	-1.815479	-0.367770	-2.372556	-0.204316	-0.005387	-4.476010	-0.000565	-91.809690	 77.628720	 179.117400	 36.848120	 69.877110	-39.921080	-7.960201	-3.988811	-19.764760	 4.448896	-17.420460	-5.588100	-3.812334	 37.924440	-2.927599	-2.450526	 36.184240	 0.754587	-1.378229	 35.397820	-2.634230	 0.560038	 6.079007	-3.214112	 0.324450	-13.432790	-1.591074	 89.765800	 79.247230	-179.649900	-36.455410	 70.297810	 39.116480	 4.209606	-7.834374	 30.824620	-8.645750	-18.243440	 10.094950	 6.437017	 35.671460	-0.771858	 2.830251	 35.756010	-7.813440	-2.350882	 35.473990	 5.254307
 0.711277	-0.542827	-0.732070	 99.980580	 0.686862	 3.694139	 5.043047	-4.057097	 176.491700	-11.188090	-33.839420	-5.143878	 171.972400	 86.484250	 179.418000	-2.377049	 30.260300	-0.039563	 1.762864	-12.699800	 178.983600	 3.673673	-47.700670	 5.742356	-175.527900	 81.992350	-178.525800	 2.403652	 22.154710	-0.129985	-0.887348	 0.512590	-1.868893	-0.398492	-2.354448	-0.204157	-0.068490	-4.456166	-0.007177	-91.809800	 77.602290	 179.138500	 36.683130	 69.866080	-39.674870	-8.019930	-4.011283	-20.068850	 4.391424	-17.428760	-5.591994	-3.812334	 37.924440	-2.927599	-2.450526	 36.184240	 0.754587	-1.378229	 35.397820	-2.634230	 0.493687	 6.029733	-3.211626	 0.256951	-13.347100	-1.594023	 89.765080	 79.271850	-179.643100	-36.355460	 70.380360	 39.083270	 4.265003	-7.790363	 30.558510	-8.672490	-18.256420	 10.097370	 6.437017	 35.671460	-0.771858	 2.830251	 35.756010	-7.813440	-2.350882	 35.473990	 5.254307
 0.706012	-0.542729	-0.732433	 100.125400	 0.737160	 3.718760	 5.026502	-4.181464	 176.511500	-11.098790	-34.004710	-5.125651	 171.977100	 86.328000	 179.483400	-2.376432	 30.376850	-0.042148	 1.791506	-12.769330	 178.975700	 3.743809	-47.867100	 5.832961	-175.756600	 81.785640	-178.252900	 2.403623	 22.170260	-0.129672	-0.927402	 0.518241	-1.911380	-0.410930	-2.346174	-0.223665	-0.101034	-4.447499	-0.010578	-91.809540	 77.594870	 179.151000	 36.606590	 69.829820	-39.587830	-8.081425	-4.023092	-20.340350	 4.321799	-17.444140	-5.596875	-3.812334	 37.924440	-2.927599	-2.450526	 36.184240	 0.754587	-1.378229	 35.397820	-2.634230	 0.466490	 5.916556	-3.317096	 0.238067	-13.217500	-1.470974	 89.764390	 79.279160	-179.631600	-36.279350	 70.437910	 39.033320	 4.292007	-7.745224	 30.322190	-8.688199	-18.276380	 10.101010	 6.437017	 35.671460	-0.771858	 2.830251	 35.756010	-7.813440	-2.350882	 35.473990	 5.254307
 0.699384	-0.542712	-0.732795	 100.220400	 0.783227	 3.739537	 5.007520	-4.308609	 176.534600	-11.001540	-34.182560	-5.105442	 171.960100	 86.172390	 179.575900	-2.375765	 30.500490	-0.044895	 1.860366	-12.886280	 178.969500	 3.867824	-48.138610	 6.005116	-176.060600	 81.575520	-177.862100	 2.403535	 22.221010	-0.128646	-0.968158	 0.530786	-1.929035	-0.410478	-2.359181	-0.253104	-0.113161	-4.464397	-0.011865	-91.808590	 77.610820	 179.161800	 36.587770	 69.773230	-39.612410	-8.142510	-4.025595	-20.575920	 4.245052	-17.465490	-5.603002	-3.812334	 37.924440	-2.927599	-2.450526	 36.184240	 0.754587	-1.378229	 35.397820	-2.634230	 0.468924	 5.742605	-3.472576	 0.242526	-13.076680	-1.320676	 89.764290	 79.261900	-179.622600	-36.260620	 70.478020	 39.057700	 4.295109	-7.709929	 30.112740	-8.714561	-18.302900	 10.105630	 6.437017	 35.671460	-0.771858	 2.830251	 35.756010	-7.813440	-2.350882	 35.473990	 5.254307
 0.697581	-0.541350	-0.733228	 100.259400	 0.820102	 3.728289	 5.006923	-4.456036	 176.574700	-10.891160	-34.397870	-5.070260	 172.010400	 85.991950	 179.632700	-2.375043	 30.632150	-0.047843	 1.897086	-13.129350	 178.979200	 4.107213	-48.659320	 6.274184	-176.174300	 81.353100	-177.625200	 2.403111	 22.452850	-0.123956	-1.032217	 0.599728	-1.906043	-0.434301	-2.393083	-0.282875	-0.161922	-4.507684	-0.017037	-91.806410	 77.654770	 179.180500	 36.598370	 69.684510	-39.722770	-8.213294	-4.018683	-20.811890	 4.149057	-17.499080	-5.611655	-3.812334	 37.924440	-2.927599	-2.450526	 36.184240	 0.754587	-1.378229	 35.397820	-2.634230	 0.421989	 5.546913	-3.513234	 0.194447	-12.968620	-1.325015	 89.764950	 79.215150	-179.618800	-36.329170	 70.516540	 39.257740	 4.283101	-7.688120	 29.889750	-8.777243	-18.342470	 10.112860	 6.437017	 35.671460	-0.771858	 2.830251	 35.756010	-7.813440	-2.350882	 35.473990	 5.254307
 0.697504	-0.540029	-0.733540	 100.238800	 0.827219	 3.703746	 5.041335	-4.549317	 176.630900	-10.837280	-34.540520	-5.033909	 172.164400	 85.874400	 179.569800	-2.374651	 30.702800	-0.049415	 2.005527	-13.392840	 179.021800	 4.215946	-49.173760	 6.500532	-176.224700	 81.235410	-177.493000	 2.402475	 22.779870	-0.117320	-1.098794	 0.693698	-1.856752	-0.490295	-2.403926	-0.297490	-0.248105	-4.523806	-0.026138	-91.804230	 77.698400	 179.201200	 36.607650	 69.612500	-39.821700	-8.259893	-4.008883	-20.946370	 4.083133	-17.527500	-5.618401	-3.812334	 37.924440	-2.927599	-2.450526	 36.184240	 0.754587	-1.378229	 35.397820	-2.634230	 0.321580	 5.548545	-3.412958	 0.097999	-13.007200	-1.505684	 89.765690	 79.169750	-179.617100	-36.373620	 70.545040	 39.410710	 4.292943	-7.671589	 29.753710	-8.812646	-18.374200	 10.119030	 6.437017	 35.671460	-0.771858	 2.830251	 35.756010	-7.813440	-2.350882	 35.473990	 5.254307
 0.697410	-0.538254	-0.733930	 100.175100	 0.836119	 3.636658	 5.127162	-4.649038	 176.743900	-10.798560	-34.701850	-4.971790	 172.326600	 85.740170	 179.538500	-2.374332	 30.761250	-0.050714	 2.138397	-13.847220	 179.102600	 4.386467	-50.016630	 6.837831	-176.277200	 81.147300	-177.347100	 2.401294	 23.341290	-0.105901	-1.189009	 0.856642	-1.752980	-0.567651	-2.426692	-0.306531	-0.363032	-4.556836	-0.038348	-91.801000	 77.764070	 179.234700	 36.643550	 69.509290	-40.011430	-8.314064	-3.992512	-21.080900	 4.005016	-17.568750	-5.627576	-3.812334	 37.924440	-2.927599	-2.450526	 36.184240	 0.754587	-1.378229	 35.397820	-2.634230	 0.183641	 5.587939	-3.231257	-0.035651	-13.118270	-1.777154	 89.767230	 79.100820	-179.625400	-36.439350	 70.576900	 39.619270	 4.319783	-7.645381	 29.603490	-8.840196	-18.418380	 10.127970	 6.437017	 35.671460	-0.771858	 2.830251	 35.756010	-7.813440	-2.350882	 35.473990	 5.254307
 0.697275	-0.536244	-0.734350	 100.080300	 0.845805	 3.514874	 5.276264	-4.728539	 176.895200	-10.804020	-34.840270	-4.890066	 172.795300	 85.618710	 179.228300	-2.373998	 30.820710	-0.052045	 2.221838	-14.484000	 179.280200	 4.618427	-51.149640	 7.236948	-176.232500	 81.143150	-177.323800	 2.399363	 24.150610	-0.089316	-1.275258	 1.073033	-1.593132	-0.629787	-2.465599	-0.299305	-0.450565	-4.613181	-0.047818	-91.797470	 77.842740	 179.269700	 36.702150	 69.388630	-40.276550	-8.369533	-3.970304	-21.182820	 3.926837	-17.617950	-5.637898	-3.812334	 37.924440	-2.927599	-2.450526	 36.184240	 0.754587	-1.378229	 35.397820	-2.634230	 0.083767	 5.564932	-3.149832	-0.127385	-13.212170	-1.934003	 89.769450	 79.016900	-179.646700	-36.531120	 70.604430	 39.870320	 4.360197	-7.612608	 29.467570	-8.851974	-18.469260	 10.138350	 6.437017	 35.671460	-0.771858	 2.830251	 35.756010	-7.813440	-2.350882	 35.473990	 5.254307
